<svg width="80" height="56" viewBox="0 0 80 56" fill="none" xmlns="http://www.w3.org/2000/svg">
<path d="M15.8286 4L23.0205 27.2728H16.2786L15.535 24.5159H8.50904L7.8025 27.2776H1.06055L8.25244 4.00477L15.8286 4ZM13.3569 17.9983L12.0441 12.636L10.6955 17.9983H13.3569Z" fill="#781A25"/>
<path d="M30.822 4.00023C32.377 3.99033 33.9173 4.30156 35.3465 4.91443C36.7277 5.50353 37.9817 6.35465 39.0391 7.42074C40.0914 8.48583 40.9354 9.7382 41.5275 11.1134C42.1422 12.5374 42.4539 14.0737 42.4429 15.6247C42.4528 17.1806 42.1411 18.7217 41.5275 20.1516C40.9403 21.5319 40.0985 22.7894 39.0463 23.8585C37.9888 24.9246 36.7349 25.7757 35.3537 26.3648C33.9238 26.9784 32.3827 27.2901 30.8268 27.2802H24.0801V4.00739L30.822 4.00023ZM30.822 20.4702C31.4875 20.4742 32.1473 20.349 32.765 20.1014C33.3575 19.867 33.8977 19.5178 34.3547 19.0739C34.8073 18.632 35.1675 18.1046 35.4145 17.5223C35.801 16.6183 35.9065 15.619 35.7175 14.6542C35.5285 13.6893 35.0537 12.8037 34.3547 12.1123C33.8954 11.6674 33.356 11.3135 32.765 11.0692C32.1499 10.8112 31.489 10.6801 30.822 10.6837V20.4702Z" fill="#781A25"/>
<path d="M59.6863 20.5348V27.2767H43.5361V4.00391H59.6863V10.7399H50.2793V12.8273H58.1419V18.4784H50.2793V20.5336L59.6863 20.5348Z" fill="#781A25"/>
<path d="M79.4949 4L73.4905 15.6233L79.4949 27.2776H71.8865L67.6162 18.9937V27.2776H60.873V4.00477H67.615V12.2887L71.8853 4.00477L79.4949 4Z" fill="#781A25"/>
<path d="M46.5841 46.1943L45.2797 38.9917L50.7661 33.9266L43.1791 32.8823L39.7479 26.2979L36.3155 32.8823L28.7285 33.9266L34.2161 38.9917L32.9117 46.1943L39.7479 42.7905L46.5841 46.1943Z" fill="#781A25"/>
<path d="M42.3516 28.582L43.9914 31.728L53.3005 33.0098H77.8862C78.4452 33.0098 78.9813 32.7878 79.3765 32.3925C79.7718 31.9972 79.9938 31.4611 79.9938 30.9022V28.582H42.3516Z" fill="#262262"/>
<path d="M35.5036 31.729L37.1434 28.583H0V30.9031C0 31.1799 0.0545168 31.454 0.160438 31.7097C0.266359 31.9654 0.42161 32.1978 0.617326 32.3935C0.813042 32.5892 1.04539 32.7445 1.30111 32.8504C1.55682 32.9563 1.8309 33.0108 2.10768 33.0108H26.1885L35.5036 31.729Z" fill="#262262"/>
<path d="M27.5073 34.5039H0V36.824C0 37.383 0.222059 37.9191 0.617326 38.3144C1.01259 38.7097 1.54869 38.9317 2.10768 38.9317H32.3027L27.5073 34.5039Z" fill="#2B3990"/>
<path d="M51.9882 34.5039L47.1904 38.9317H77.8926C78.4516 38.9317 78.9877 38.7097 79.383 38.3144C79.7783 37.9191 80.0003 37.383 80.0003 36.824V34.5039H51.9882Z" fill="#2B3990"/>
<path d="M39.7475 44.1904L38.2676 44.928H41.2274L39.7475 44.1904Z" fill="#1B75BC"/>
<path d="M32.6691 40.499H0V42.8191C0 43.0959 0.0545168 43.37 0.160438 43.6257C0.266359 43.8814 0.42161 44.1138 0.617326 44.3095C0.813042 44.5052 1.04539 44.6605 1.30111 44.7664C1.55682 44.8723 1.8309 44.9268 2.10768 44.9268H31.867L32.6691 40.499Z" fill="#1B75BC"/>
<path d="M46.8262 40.499L47.6282 44.9268H77.8924C78.1692 44.9268 78.4433 44.8723 78.699 44.7664C78.9547 44.6605 79.187 44.5052 79.3827 44.3095C79.5785 44.1138 79.7337 43.8814 79.8396 43.6257C79.9456 43.37 80.0001 43.0959 80.0001 42.8191V40.499H46.8262Z" fill="#1B75BC"/>
<path d="M2.9043 47.1406H3.52968V51.1256H2.9043V47.1406Z" fill="#781A25"/>
<path d="M6.26471 48.2446H6.25277V51.1316H5.68945V47.1406H6.47476L7.10611 49.5276H7.11805V47.1406H7.6754V51.1256H7.03212L6.26471 48.2446Z" fill="#781A25"/>
<path d="M9.83594 47.1406H10.8265C11.4531 47.1406 11.7598 47.4879 11.7598 48.1252V50.1398C11.7598 50.7772 11.4519 51.1245 10.8265 51.1245H9.83594V47.1406ZM10.4625 47.7099V50.5564H10.8206C11.0199 50.5564 11.1392 50.4537 11.1392 50.1697V48.1014C11.1392 47.8173 11.0199 47.7147 10.8206 47.7147L10.4625 47.7099Z" fill="#781A25"/>
<path d="M14.4663 47.1406V50.2198C14.4663 50.5038 14.5857 50.6065 14.7909 50.6065C14.9962 50.6065 15.1156 50.5038 15.1156 50.2198V47.1406H15.7123V50.1744C15.7123 50.8118 15.3936 51.177 14.779 51.177C14.1644 51.177 13.8457 50.813 13.8457 50.1744V47.1406H14.4663Z" fill="#781A25"/>
<path d="M18.687 47.1006C19.2957 47.1006 19.6095 47.4646 19.6095 48.1019V48.2272H19.0128V48.0613C19.0128 47.7773 18.8935 47.6687 18.7001 47.6687C18.5068 47.6687 18.3874 47.7761 18.3874 48.0613C18.3874 48.3466 18.5068 48.5686 18.9221 48.9266C19.446 49.3873 19.6107 49.7179 19.6107 50.1738C19.6107 50.8111 19.2921 51.1751 18.6774 51.1751C18.0628 51.1751 17.7441 50.8111 17.7441 50.1738V49.9291H18.3409V50.2132C18.3409 50.4972 18.4602 50.5999 18.6655 50.5999C18.8708 50.5999 18.9901 50.4972 18.9901 50.2132C18.9901 49.9291 18.8708 49.7059 18.4555 49.3479C17.9315 48.8872 17.7668 48.5566 17.7668 48.1007C17.7644 47.4646 18.0771 47.1006 18.687 47.1006Z" fill="#781A25"/>
<path d="M21.502 47.1406H23.4378V47.7099H22.7837V51.1256H22.1572V47.7147H21.502V47.1406Z" fill="#781A25"/>
<path d="M26.7309 51.1304C26.679 50.9728 26.6595 50.8064 26.6736 50.6411V50.0145C26.6736 49.6445 26.5543 49.5073 26.2643 49.5073H26.0482V51.1292H25.4229V47.1406H26.3681C27.0173 47.1406 27.2966 47.4426 27.2966 48.0572V48.3711C27.2966 48.7805 27.1653 49.043 26.8872 49.1743V49.1851C27.1999 49.3163 27.3026 49.6123 27.3026 50.0276V50.6423C27.2911 50.8064 27.3143 50.9711 27.3706 51.1256L26.7309 51.1304ZM26.0482 47.7147V48.9392H26.2929C26.5316 48.9392 26.6688 48.8366 26.6688 48.5179V48.1252C26.6688 47.8412 26.5722 47.7159 26.3502 47.7159L26.0482 47.7147Z" fill="#781A25"/>
<path d="M29.4189 47.1406H30.0443V51.1256H29.4189V47.1406Z" fill="#781A25"/>
<path d="M34.2361 51.1304H33.6048L33.4974 50.4072H32.7288L32.6202 51.1304H32.0449L32.6822 47.1406H33.5988L34.2361 51.1304ZM32.804 49.8665H33.4067L33.1155 47.8567H33.1035L32.804 49.8665Z" fill="#781A25"/>
<path d="M36.2373 47.1406H36.8627V50.5564H37.8927V51.1256H36.2373V47.1406Z" fill="#781A25"/>
<path d="M44.2846 49.6475V50.1774C44.2846 50.8147 43.9659 51.1787 43.3513 51.1787C42.7366 51.1787 42.418 50.8147 42.418 50.1774V48.1019C42.418 47.4646 42.7366 47.1006 43.3513 47.1006C43.9659 47.1006 44.2846 47.4646 44.2846 48.1019V48.4886H43.6878V48.0613C43.6878 47.7773 43.5685 47.6687 43.3632 47.6687C43.1579 47.6687 43.0386 47.7761 43.0386 48.0613V50.2096C43.0386 50.4936 43.1579 50.5963 43.3632 50.5963C43.5685 50.5963 43.6878 50.4936 43.6878 50.2096V49.6475H44.2846Z" fill="#781A25"/>
<path d="M46.3262 48.1019C46.3262 47.4646 46.6627 47.1006 47.281 47.1006C47.8992 47.1006 48.2357 47.4646 48.2357 48.1019V50.175C48.2357 50.8123 47.9004 51.1763 47.281 51.1763C46.6615 51.1763 46.3262 50.8123 46.3262 50.175V48.1019ZM46.9527 50.2144C46.9527 50.4984 47.0781 50.607 47.2774 50.607C47.4767 50.607 47.602 50.4996 47.602 50.2144V48.0661C47.602 47.7821 47.4827 47.6735 47.2774 47.6735C47.0721 47.6735 46.9527 47.7809 46.9527 48.0661V50.2144Z" fill="#781A25"/>
<path d="M51.6607 49.9751H51.6726L52.0927 47.1406H52.964V51.1256H52.3672V48.2732H52.3565L51.9352 51.1304H51.3385L50.8825 48.3126H50.8718V51.1304H50.3252V47.1406H51.1964L51.6607 49.9751Z" fill="#781A25"/>
<path d="M56.9862 48.13V48.648C56.9862 49.2853 56.6783 49.6326 56.0529 49.6326H55.7545V51.1304H55.1279V47.1406H56.0505C56.6783 47.1406 56.9862 47.4987 56.9862 48.13ZM55.7545 47.7147V49.0645H56.0505C56.2498 49.0645 56.3584 48.9726 56.3584 48.6886V48.0918C56.3584 47.8078 56.2498 47.7159 56.0505 47.7159L55.7545 47.7147Z" fill="#781A25"/>
<path d="M59.5845 47.1406V50.2198C59.5845 50.5038 59.7038 50.6065 59.9091 50.6065C60.1144 50.6065 60.2337 50.5038 60.2337 50.2198V47.1406H60.8305V50.1744C60.8305 50.8118 60.5118 51.177 59.8972 51.177C59.2825 51.177 58.9639 50.813 58.9639 50.1744V47.1406H59.5845Z" fill="#781A25"/>
<path d="M62.7803 47.1406H64.7161V47.7099H64.0609V51.1256H63.4343V47.7147H62.7803V47.1406Z" fill="#781A25"/>
<path d="M67.3248 48.8246H68.1841V49.3939H67.3248V50.5611H68.4049V51.1304H66.6982V47.1406H68.4049V47.7099H67.3236L67.3248 48.8246Z" fill="#781A25"/>
<path d="M71.8131 51.1304C71.761 50.9729 71.7415 50.8064 71.7559 50.6411V50.0145C71.7559 49.6445 71.6365 49.5073 71.3465 49.5073H71.1305V51.1292H70.5039V47.1406H71.4491C72.0984 47.1406 72.3777 47.4426 72.3777 48.0572V48.3711C72.3777 48.7805 72.2464 49.043 71.9671 49.1743V49.1851C72.281 49.3163 72.3824 49.6123 72.3824 50.0276V50.6423C72.371 50.8064 72.3942 50.9711 72.4505 51.1256L71.8131 51.1304ZM71.1305 47.7147V48.9392H71.3751C71.6138 48.9392 71.7511 48.8366 71.7511 48.5179V48.1252C71.7511 47.8412 71.6544 47.7159 71.4324 47.7159L71.1305 47.7147Z" fill="#781A25"/>
<path d="M75.3444 47.1006C75.9531 47.1006 76.267 47.4646 76.267 48.1019V48.2272H75.6703V48.0613C75.6703 47.7773 75.5509 47.6687 75.3564 47.6687C75.1618 47.6687 75.0437 47.7761 75.0437 48.0613C75.0437 48.3466 75.163 48.5686 75.5784 48.9266C76.1023 49.3873 76.267 49.7179 76.267 50.1738C76.267 50.8111 75.9483 51.1751 75.3337 51.1751C74.7191 51.1751 74.4004 50.8111 74.4004 50.1738V49.9291H74.9971V50.2132C74.9971 50.4972 75.1224 50.5999 75.3218 50.5999C75.5211 50.5999 75.6464 50.4972 75.6464 50.2132C75.6464 49.9291 75.5211 49.7059 75.1105 49.3479C74.5866 48.8872 74.4219 48.5566 74.4219 48.1007C74.4231 47.4646 74.731 47.1006 75.3444 47.1006Z" fill="#781A25"/>
</svg>
